<svg id="Слой_1" data-name="Слой 1" xmlns="http://www.w3.org/2000/svg" viewBox="0 0 127.76 116.8">
  <defs>
    <style>
      .cls-1 {
        fill: #fff;
      }
    </style>
  </defs>
  <path d="M0,20.86c.17-.8.3-1.61.51-2.4A14.78,14.78,0,0,1,14.82,7.31c5.87,0,11.73,0,17.6,0l.38,0v7.28H32c-5.71,0-11.42,0-17.14,0a7.39,7.39,0,0,0-7.4,5.84,8.3,8.3,0,0,0-.19,1.87q0,39.75,0,79.5a7.44,7.44,0,0,0,7.75,7.69q39.69,0,79.38,0a7.46,7.46,0,0,0,7.75-7.82q0-19.35,0-38.71v-.65a21.61,21.61,0,0,0,7.27-1.86c0,.26,0,.45,0,.63q0,20.23,0,40.47a14.89,14.89,0,0,1-10.65,14.59,15.63,15.63,0,0,1-4.36.62q-39.72,0-79.44,0a14.82,14.82,0,0,1-14.9-13.2A4.37,4.37,0,0,0,0,103.1Z"/>
  <path d="M116.21,40.36c-.18.2-.32.36-.47.51Q94,62.26,72.18,83.64a5.4,5.4,0,0,1-2,1.2C62.56,87.25,55,89.62,47.37,92a1.74,1.74,0,0,1-1.93-.36,1.72,1.72,0,0,1-.22-1.89L52.4,67.6a7.4,7.4,0,0,1,2-3.09Q75.82,43.63,97.24,22.72a4.9,4.9,0,0,0,.42-.53ZM97.5,30.86A1.77,1.77,0,0,0,96,28.92a1.9,1.9,0,0,0-1.6.69l-29,28.56q-2.56,2.51-5.11,5A1.55,1.55,0,0,0,59.83,65,1.63,1.63,0,0,0,61.34,66,2.22,2.22,0,0,0,63,65.2Q74.2,54.13,85.45,43.09,91.1,37.54,96.73,32A5.79,5.79,0,0,0,97.5,30.86ZM66.38,82.39,55,71.18c-1,3.14-2,6.14-2.95,9.15a.77.77,0,0,0,.21.59c1.4,1.4,2.83,2.77,4.22,4.16a.68.68,0,0,0,.81.17c.69-.24,1.4-.44,2.1-.66Z"/>
  <path d="M119.31,37.31,100.8,19.11l1.34-1.29,5.15-5.08a5.65,5.65,0,0,1,5.07-1.8,4.51,4.51,0,0,1,2.45,1.38l11.42,11.25a4.43,4.43,0,0,1,.93,5.57A6.08,6.08,0,0,1,126,30.72c-2.12,2.14-4.29,4.25-6.44,6.36C119.51,37.16,119.42,37.22,119.31,37.31Z"/>
  <path d="M22,43.81H65.64v7.24H22Z"/>
  <path d="M47.39,69.33H22V62.09H47.39Z"/>
  <path d="M47.48,14.54V7.33H65.66v7.21Z"/>
  <path d="M80.31,14.56V7.29H81c4.48,0,9,0,13.43,0a14.68,14.68,0,0,1,6.06,1.24.75.75,0,0,1,0,.15c-2,1.83-3.93,3.67-5.91,5.49a1.4,1.4,0,0,1-.82.41c-4.34,0-8.69,0-13,0Z"/>
  <path d="M69.34,9.1c0-1.76,0-3.52,0-5.28a3.65,3.65,0,1,1,7.29,0q0,5.34,0,10.68a3.65,3.65,0,1,1-7.29,0V9.1Z"/>
  <path d="M43.8,9.13c0,1.76,0,3.52,0,5.28a3.65,3.65,0,1,1-7.29,0q0-5.34,0-10.68a3.65,3.65,0,1,1,7.29,0C43.81,5.53,43.8,7.33,43.8,9.13Z"/>
  <path class="cls-1" d="M97.5,30.86A5.79,5.79,0,0,1,96.73,32q-5.61,5.56-11.28,11.11Q74.21,54.15,63,65.2a2.22,2.22,0,0,1-1.63.84A1.63,1.63,0,0,1,59.83,65a1.55,1.55,0,0,1,.42-1.78q2.55-2.52,5.11-5l29-28.56a1.9,1.9,0,0,1,1.6-.69A1.77,1.77,0,0,1,97.5,30.86Z"/>
  <path class="cls-1" d="M66.38,82.39l-7,2.2c-.7.22-1.41.42-2.1.66a.68.68,0,0,1-.81-.17c-1.39-1.39-2.82-2.76-4.22-4.16a.77.77,0,0,1-.21-.59c.95-3,1.93-6,2.95-9.15Z"/>
</svg>
