<svg id="Слой_1" data-name="Слой 1" xmlns="http://www.w3.org/2000/svg" viewBox="0 0 70.53 58.27">
  <defs>
    <style>
      .cls-1 {
        fill: #fff;
      }

      .cls-2 {
        fill: #7f0;
      }
    </style>
  </defs>
  <path class="cls-1" d="M42.55,21.25V7.77a6.88,6.88,0,0,0-.75-3.19A7.72,7.72,0,0,0,40,2.28,9.08,9.08,0,0,0,33.77,0H8.71A9,9,0,0,0,2.56,2.28,7.09,7.09,0,0,0,0,7.77V29.48A7.09,7.09,0,0,0,2.56,35a8.91,8.91,0,0,0,6.15,2.28H42.55V32H8.71a2.88,2.88,0,0,1-2-.74,2.29,2.29,0,0,1-.83-1.76V21.25ZM5.9,7.77A2.32,2.32,0,0,1,6.73,6a2.87,2.87,0,0,1,2-.73H33.77a2.87,2.87,0,0,1,2,.73,2.32,2.32,0,0,1,.83,1.77V16H5.9Z"/>
  <rect class="cls-2" x="36.58" y="41.18" width="5.97" height="17.09"/>
  <polygon class="cls-2" points="70.53 57.8 70.53 57.87 62.97 57.87 43.67 37.25 42.55 37.25 42.55 31.95 43.67 31.95 62.97 11.34 70.45 11.34 70.45 11.4 48.78 34.6 70.53 57.8"/>
  <rect class="cls-2" x="36.58" y="11.34" width="5.97" height="9.91"/>
</svg>
